<svg width="284" height="66" viewBox="0 0 284 66" fill="none" xmlns="http://www.w3.org/2000/svg">
<path d="M53.4322 53V14.3558H62.0258V53H53.4322ZM60.0006 37.8379V30.4484H79.3227V37.8379H60.0006ZM60.0006 21.7453V14.3558H80.1985V21.7453H60.0006ZM157.661 53V14.9032H166.254V53H157.661ZM145.564 21.8547V14.3558H178.351V21.8547H145.564ZM243.988 53.6021C241.105 53.6021 238.533 53.0182 236.27 51.8505C234.044 50.6463 232.293 48.986 231.016 46.8695C229.738 44.753 229.1 42.3628 229.1 39.6989C229.1 37.0351 229.72 34.6632 230.961 32.5832C232.238 30.4667 233.953 28.8063 236.106 27.6021C238.259 26.3979 240.686 25.7958 243.386 25.7958C246.013 25.7958 248.331 26.3614 250.338 27.4926C252.345 28.6239 253.914 30.193 255.045 32.2C256.213 34.207 256.797 36.506 256.797 39.0968C256.797 39.5712 256.76 40.0821 256.687 40.6295C256.651 41.1404 256.559 41.7425 256.413 42.4358L233.479 42.4905V36.7432L252.856 36.6884L249.243 39.0968C249.206 37.5642 248.969 36.3053 248.531 35.32C248.093 34.2982 247.437 33.5319 246.561 33.0211C245.722 32.4737 244.682 32.2 243.441 32.2C242.127 32.2 240.978 32.5102 239.992 33.1305C239.044 33.7144 238.296 34.5537 237.748 35.6484C237.237 36.7432 236.982 38.0751 236.982 39.6442C236.982 41.2133 237.256 42.5635 237.803 43.6947C238.387 44.7895 239.19 45.647 240.211 46.2674C241.27 46.8512 242.51 47.1432 243.933 47.1432C245.247 47.1432 246.433 46.9242 247.491 46.4863C248.55 46.0119 249.48 45.3186 250.283 44.4063L254.881 49.0042C253.567 50.5368 251.98 51.6863 250.119 52.4526C248.258 53.2189 246.214 53.6021 243.988 53.6021Z" fill="#FE9B53"/>
<path d="M97.3226 53.6021C94.8776 53.6021 92.7064 53.1095 90.8089 52.1242C88.9478 51.1025 87.4882 49.7158 86.4299 47.9642C85.3717 46.1761 84.8426 44.1326 84.8426 41.8337V26.3979H93.2173V41.7242C93.2173 42.6365 93.3633 43.4211 93.6552 44.0779C93.9836 44.7347 94.458 45.2456 95.0783 45.6105C95.6987 45.9754 96.4468 46.1579 97.3226 46.1579C98.5633 46.1579 99.5485 45.7747 100.278 45.0084C101.008 44.2056 101.373 43.1109 101.373 41.7242V26.3979H109.748V41.7789C109.748 44.1144 109.219 46.1761 108.16 47.9642C107.102 49.7158 105.643 51.1025 103.782 52.1242C101.92 53.1095 99.7675 53.6021 97.3226 53.6021Z" fill="#FE9B53"/>
<path d="M97.3226 53.6021C94.8776 53.6021 92.7064 53.1095 90.8089 52.1242C88.9478 51.1025 87.4882 49.7158 86.4299 47.9642C85.3717 46.1761 84.8426 44.1326 84.8426 41.8337V26.3979H93.2173V41.7242C93.2173 42.6365 93.3633 43.4211 93.6552 44.0779C93.9836 44.7347 94.458 45.2456 95.0783 45.6105C95.6987 45.9754 96.4468 46.1579 97.3226 46.1579C98.5633 46.1579 99.5485 45.7747 100.278 45.0084C101.008 44.2056 101.373 43.1109 101.373 41.7242V26.3979H109.748V41.7789C109.748 44.1144 109.219 46.1761 108.16 47.9642C107.102 49.7158 105.643 51.1025 103.782 52.1242C101.92 53.1095 99.7675 53.6021 97.3226 53.6021Z" fill="#87C38F"/>
<path d="M133.124 53V37.8379C133.124 36.4512 132.686 35.3382 131.81 34.4989C130.971 33.6232 129.894 33.1853 128.581 33.1853C127.668 33.1853 126.866 33.386 126.172 33.7874C125.479 34.1523 124.932 34.6996 124.53 35.4295C124.129 36.1228 123.928 36.9256 123.928 37.8379L120.699 36.2505C120.699 34.1705 121.155 32.346 122.067 30.7768C122.979 29.2077 124.238 28.0035 125.844 27.1642C127.486 26.2884 129.329 25.8505 131.372 25.8505C133.343 25.8505 135.076 26.3249 136.572 27.2737C138.105 28.186 139.309 29.4084 140.185 30.9411C141.061 32.4737 141.499 34.1523 141.499 35.9768V53H133.124ZM115.553 53V26.3979H123.928V53H115.553Z" fill="#FE9B53"/>
<path d="M133.124 53V37.8379C133.124 36.4512 132.686 35.3382 131.81 34.4989C130.971 33.6232 129.894 33.1853 128.581 33.1853C127.668 33.1853 126.866 33.386 126.172 33.7874C125.479 34.1523 124.932 34.6996 124.53 35.4295C124.129 36.1228 123.928 36.9256 123.928 37.8379L120.699 36.2505C120.699 34.1705 121.155 32.346 122.067 30.7768C122.979 29.2077 124.238 28.0035 125.844 27.1642C127.486 26.2884 129.329 25.8505 131.372 25.8505C133.343 25.8505 135.076 26.3249 136.572 27.2737C138.105 28.186 139.309 29.4084 140.185 30.9411C141.061 32.4737 141.499 34.1523 141.499 35.9768V53H133.124ZM115.553 53V26.3979H123.928V53H115.553Z" fill="#5FBFF9"/>
<path d="M194.043 53.5474C191.598 53.5474 189.408 52.9453 187.474 51.7411C185.577 50.5368 184.062 48.8947 182.931 46.8147C181.836 44.7347 181.289 42.3628 181.289 39.6989C181.289 37.0351 181.836 34.6632 182.931 32.5832C184.062 30.5032 185.577 28.8611 187.474 27.6568C189.408 26.4526 191.598 25.8505 194.043 25.8505C195.831 25.8505 197.436 26.1972 198.859 26.8905C200.319 27.5839 201.505 28.5509 202.417 29.7916C203.33 30.9958 203.84 32.3825 203.95 33.9516V45.4463C203.84 47.0154 203.33 48.4204 202.417 49.6611C201.542 50.8653 200.374 51.814 198.914 52.5074C197.454 53.2007 195.831 53.5474 194.043 53.5474ZM195.739 45.9937C197.527 45.9937 198.969 45.4098 200.064 44.2421C201.158 43.0379 201.706 41.5235 201.706 39.6989C201.706 38.4582 201.45 37.3635 200.939 36.4147C200.465 35.466 199.772 34.7361 198.859 34.2253C197.984 33.6779 196.962 33.4042 195.794 33.4042C194.626 33.4042 193.586 33.6779 192.674 34.2253C191.798 34.7361 191.087 35.466 190.539 36.4147C190.029 37.3635 189.773 38.4582 189.773 39.6989C189.773 40.9032 190.029 41.9796 190.539 42.9284C191.05 43.8772 191.762 44.6253 192.674 45.1726C193.586 45.72 194.608 45.9937 195.739 45.9937ZM201.377 53V45.8295L202.636 39.3705L201.377 32.9116V26.3979H209.588V53H201.377ZM271.075 53.6568C269.506 53.6568 267.955 53.4561 266.422 53.0547C264.926 52.6533 263.521 52.0877 262.207 51.3579C260.93 50.5916 259.836 49.7158 258.923 48.7305L263.685 43.9137C264.561 44.8625 265.601 45.6105 266.805 46.1579C268.01 46.6688 269.323 46.9242 270.746 46.9242C271.732 46.9242 272.48 46.7782 272.991 46.4863C273.538 46.1944 273.812 45.793 273.812 45.2821C273.812 44.6253 273.483 44.1326 272.826 43.8042C272.206 43.4393 271.403 43.1291 270.418 42.8737C269.433 42.5818 268.393 42.2716 267.298 41.9432C266.203 41.6147 265.163 41.1586 264.178 40.5747C263.193 39.9909 262.39 39.1881 261.77 38.1663C261.149 37.1081 260.839 35.7761 260.839 34.1705C260.839 32.4554 261.277 30.9775 262.153 29.7368C263.029 28.4596 264.269 27.4561 265.875 26.7263C267.48 25.9965 269.36 25.6316 271.513 25.6316C273.775 25.6316 275.855 26.033 277.753 26.8358C279.687 27.6021 281.256 28.7516 282.46 30.2842L277.698 35.1011C276.859 34.1158 275.91 33.4225 274.852 33.0211C273.83 32.6196 272.826 32.4189 271.841 32.4189C270.892 32.4189 270.181 32.5649 269.706 32.8568C269.232 33.1123 268.995 33.4954 268.995 34.0063C268.995 34.5537 269.305 34.9916 269.925 35.32C270.546 35.6484 271.349 35.9403 272.334 36.1958C273.319 36.4512 274.359 36.7614 275.454 37.1263C276.549 37.4912 277.589 37.9839 278.574 38.6042C279.559 39.2246 280.362 40.0639 280.982 41.1221C281.603 42.1439 281.913 43.494 281.913 45.1726C281.913 47.7635 280.927 49.8253 278.957 51.3579C277.023 52.8905 274.396 53.6568 271.075 53.6568Z" fill="#87C38F"/>
<path d="M216.032 53V13.2611H224.407V53H216.032Z" fill="#5FBFF9"/>
<g clip-path="url(#clip0_123_237)">
<path d="M2.42725 30.4644C2.48772 37.4363 2.54733 44.4082 2.6078 51.3801C13.4753 52.9719 22.5321 57.8708 22.5321 57.8708C22.5321 57.8708 31.3181 52.9719 42.1857 51.3801C42.2453 44.4082 42.3057 37.4363 42.3654 30.4644C31.3667 31.3664 22.441 37.3162 22.441 37.3162C22.441 37.3162 13.4259 31.3664 2.42725 30.4644Z" fill="#87C38F"/>
<path d="M36.7903 7.12823C35.3969 8.48752 31.905 10.7573 31.0397 11.3083C29.0501 12.5748 27.8126 14.7568 27.8126 14.7568L27.8143 14.7585C26.1203 14.273 24.2347 13.969 22.3525 13.9375C20.4702 13.9698 18.674 14.273 16.98 14.7585V14.7568C16.98 14.7568 15.7425 12.5739 13.7538 11.3083C12.8885 10.7573 9.39577 8.48752 8.00241 7.12823C3.38457 11.8628 7.30914 19.8209 7.30914 19.8209L7.32617 19.8167C4.24222 22.1639 2.19136 24.4209 1.52619 24.874C3.23893 24.4686 4.54627 24.3553 4.54627 24.3553C4.54627 24.3553 3.24745 24.6466 0.286987 28.0065C2.18029 27.0602 5.20803 26.5186 6.21472 26.5867C3.89303 27.3311 2.72111 28.2926 2.38299 28.48C12.8477 28.48 22.3934 35.3284 22.3968 35.331C22.3968 35.331 31.9459 28.4792 42.4105 28.4792C42.0724 28.2918 40.9005 27.3302 38.5788 26.5859C39.5855 26.5186 42.6132 27.0594 44.5065 28.0056C41.5452 24.6457 40.2472 24.3544 40.2472 24.3544C40.2472 24.3544 41.5546 24.4669 43.2673 24.8731C42.6022 24.4192 40.5513 22.1622 37.4673 19.8158L37.4844 19.8201C37.4844 19.8201 41.4089 11.8628 36.7911 7.12738L36.7903 7.12823Z" fill="#FC8F30"/>
<path d="M21.5587 13.7016C19.8204 13.6615 17.0984 14.7577 17.0984 14.7577C15.9239 15.4356 21.3151 29.7993 22.3465 33.3525C22.3746 33.7716 22.3968 34.0858 22.3968 34.0858C22.3968 34.0237 22.4181 33.9104 22.4555 33.7554C22.4939 33.9104 22.5151 34.0237 22.5151 34.0858C22.5151 34.0858 22.5373 33.7716 22.5654 33.3534C23.5959 29.8018 28.988 15.4356 27.8135 14.7577C27.8135 14.7577 23.8906 13.1778 22.4564 13.8813C22.2171 13.7637 21.9079 13.7092 21.5596 13.7016H21.5587Z" fill="#FDAB63"/>
<path d="M13.8203 16.3716C13.8203 16.3716 12.2574 15.4254 11.9167 13.6999C11.892 14.4647 11.8665 15.2286 11.8409 15.9926C10.0865 13.7212 10.514 12.5049 10.514 12.5049C10.514 12.5049 9.11129 16.6373 10.2483 17.6985C10.8675 17.4839 13.8203 16.3716 13.8203 16.3716Z" fill="#FDAB63"/>
<path d="M31.0908 16.5181C31.0908 16.5181 32.6537 15.5719 32.9943 13.8464C33.019 14.6112 33.0446 15.3752 33.0701 16.1391C34.8246 13.8677 34.3971 12.6515 34.3971 12.6515C34.3971 12.6515 35.7998 16.7838 34.6628 17.845C34.0436 17.6304 31.0908 16.5181 31.0908 16.5181Z" fill="#FDAB63"/>
<path d="M16.0201 19.3695C17.9935 20.0773 16.3829 20.7101 15.2161 20.3882C14.0493 20.0662 16.0201 19.3695 16.0201 19.3695Z" fill="#FDAB63"/>
<path d="M28.8909 19.3695C26.9175 20.0773 28.5281 20.7101 29.6949 20.3882C30.8617 20.0662 28.8909 19.3695 28.8909 19.3695Z" fill="#FDAB63"/>
<path d="M21.4557 33.2409C20.8876 33.2384 20.2404 33.5245 20.0649 33.861C19.7345 34.4938 22.3951 35.3327 22.3951 35.3327C22.3951 35.3327 25.0558 34.4946 24.7262 33.861C24.3957 33.2281 22.396 32.7733 22.396 34.0858C22.396 33.4709 21.9565 33.2435 21.4557 33.2409Z" fill="#F67504"/>
</g>
<defs>
<clipPath id="clip0_123_237">
<rect width="44.7927" height="51.3158" fill="white" transform="translate(0 6.8421)"/>
</clipPath>
</defs>
</svg>
